<svg width="341" height="120" viewBox="0 0 341 120" fill="none" xmlns="http://www.w3.org/2000/svg">
<path d="M39.52 72V46.08H44.416V56.736H56.008V46.08H60.904V72H56.008V61.308H44.416V72H39.52ZM68.4415 80.64L72.1855 70.344L72.2575 73.368L63.7975 52.56H68.8735L74.5615 67.284H73.4095L79.0615 52.56H83.9575L72.9775 80.64H68.4415ZM96.0288 72.54C94.0968 72.54 92.4828 72.09 91.1868 71.19C89.8908 70.29 88.9128 69.066 88.2528 67.518C87.6048 65.97 87.2808 64.224 87.2808 62.28C87.2808 60.336 87.6048 58.59 88.2528 57.042C88.9008 55.494 89.8548 54.27 91.1148 53.37C92.3748 52.47 93.9288 52.02 95.7768 52.02C97.6368 52.02 99.2568 52.464 100.637 53.352C102.017 54.24 103.085 55.458 103.841 57.006C104.609 58.542 104.993 60.3 104.993 62.28C104.993 64.224 104.615 65.97 103.859 67.518C103.115 69.066 102.071 70.29 100.727 71.19C99.3828 72.09 97.8168 72.54 96.0288 72.54ZM86.4528 80.64V52.56H90.7728V65.88H91.3848V80.64H86.4528ZM95.2368 68.184C96.2928 68.184 97.1568 67.92 97.8288 67.392C98.5008 66.864 98.9988 66.156 99.3228 65.268C99.6468 64.368 99.8088 63.372 99.8088 62.28C99.8088 61.2 99.6408 60.216 99.3048 59.328C98.9688 58.428 98.4468 57.714 97.7388 57.186C97.0428 56.646 96.1488 56.376 95.0568 56.376C94.0368 56.376 93.2088 56.622 92.5728 57.114C91.9488 57.606 91.4928 58.296 91.2048 59.184C90.9168 60.072 90.7728 61.104 90.7728 62.28C90.7728 63.456 90.9168 64.488 91.2048 65.376C91.4928 66.264 91.9608 66.954 92.6088 67.446C93.2688 67.938 94.1448 68.184 95.2368 68.184ZM108.594 62.532V58.752H119.394V62.532H108.594ZM121.568 72L129.488 46.08H136.796L144.716 72H139.676L132.62 49.14H133.556L126.608 72H121.568ZM126.32 66.6V62.028H140V66.6H126.32ZM146.142 72V67.932C146.85 68.064 147.396 68.058 147.78 67.914C148.164 67.758 148.452 67.458 148.644 67.014C148.848 66.558 149.022 65.94 149.166 65.16C149.358 64.128 149.526 62.922 149.67 61.542C149.826 60.162 149.958 58.704 150.066 57.168C150.174 55.62 150.27 54.084 150.354 52.56H165.042V72H160.146V57.132H154.638C154.59 57.756 154.524 58.5 154.44 59.364C154.368 60.228 154.284 61.128 154.188 62.064C154.104 62.988 154.008 63.876 153.9 64.728C153.792 65.568 153.678 66.288 153.558 66.888C153.27 68.412 152.844 69.612 152.28 70.488C151.716 71.364 150.942 71.922 149.958 72.162C148.974 72.414 147.702 72.36 146.142 72ZM187.557 72.54C185.613 72.54 183.873 72.246 182.337 71.658C180.813 71.058 179.517 70.152 178.449 68.94C177.393 67.728 176.589 66.204 176.037 64.368L180.825 63.18C181.281 64.56 182.067 65.7 183.183 66.6C184.299 67.5 185.649 67.944 187.233 67.932C188.349 67.908 189.411 67.686 190.419 67.266C191.439 66.846 192.261 66.204 192.885 65.34C193.341 64.764 193.689 64.134 193.929 63.45C194.181 62.754 194.361 62.04 194.469 61.308H185.397V56.736H194.505C194.289 55.416 193.869 54.258 193.245 53.262C192.621 52.266 191.805 51.492 190.797 50.94C189.789 50.388 188.601 50.124 187.233 50.148C185.613 50.16 184.233 50.616 183.093 51.516C181.965 52.416 181.185 53.616 180.753 55.116L175.857 54.432C176.505 51.6 177.843 49.41 179.871 47.862C181.899 46.314 184.461 45.54 187.557 45.54C190.065 45.54 192.231 46.11 194.055 47.25C195.891 48.378 197.307 49.956 198.303 51.984C199.299 54.012 199.797 56.364 199.797 59.04C199.797 61.56 199.305 63.84 198.321 65.88C197.349 67.92 195.945 69.54 194.109 70.74C192.285 71.94 190.101 72.54 187.557 72.54ZM203.347 72V52.56H208.243V59.976H216.235V52.56H221.131V72H216.235V64.548H208.243V72H203.347ZM235.201 72.54C233.209 72.54 231.451 72.114 229.927 71.262C228.415 70.398 227.227 69.216 226.363 67.716C225.511 66.204 225.085 64.476 225.085 62.532C225.085 60.408 225.505 58.56 226.345 56.988C227.185 55.416 228.343 54.198 229.819 53.334C231.295 52.458 232.993 52.02 234.913 52.02C236.953 52.02 238.687 52.5 240.115 53.46C241.543 54.42 242.599 55.77 243.283 57.51C243.967 59.25 244.207 61.296 244.003 63.648H239.161V61.848C239.161 59.868 238.843 58.446 238.207 57.582C237.583 56.706 236.557 56.268 235.129 56.268C233.461 56.268 232.231 56.778 231.439 57.798C230.659 58.806 230.269 60.3 230.269 62.28C230.269 64.092 230.659 65.496 231.439 66.492C232.231 67.476 233.389 67.968 234.913 67.968C235.873 67.968 236.695 67.758 237.379 67.338C238.063 66.918 238.585 66.312 238.945 65.52L243.841 66.924C243.109 68.7 241.951 70.08 240.367 71.064C238.795 72.048 237.073 72.54 235.201 72.54ZM228.757 63.648V60.012H241.645V63.648H228.757ZM257.607 72.54C255.675 72.54 254.061 72.09 252.765 71.19C251.469 70.29 250.491 69.066 249.831 67.518C249.183 65.97 248.859 64.224 248.859 62.28C248.859 60.336 249.183 58.59 249.831 57.042C250.479 55.494 251.433 54.27 252.693 53.37C253.953 52.47 255.507 52.02 257.355 52.02C259.215 52.02 260.835 52.464 262.215 53.352C263.595 54.24 264.663 55.458 265.419 57.006C266.187 58.542 266.571 60.3 266.571 62.28C266.571 64.224 266.193 65.97 265.437 67.518C264.693 69.066 263.649 70.29 262.305 71.19C260.961 72.09 259.395 72.54 257.607 72.54ZM248.031 80.64V52.56H252.351V65.88H252.963V80.64H248.031ZM256.815 68.184C257.871 68.184 258.735 67.92 259.407 67.392C260.079 66.864 260.577 66.156 260.901 65.268C261.225 64.368 261.387 63.372 261.387 62.28C261.387 61.2 261.219 60.216 260.883 59.328C260.547 58.428 260.025 57.714 259.317 57.186C258.621 56.646 257.727 56.376 256.635 56.376C255.615 56.376 254.787 56.622 254.151 57.114C253.527 57.606 253.071 58.296 252.783 59.184C252.495 60.072 252.351 61.104 252.351 62.28C252.351 63.456 252.495 64.488 252.783 65.376C253.071 66.264 253.539 66.954 254.187 67.446C254.847 67.938 255.723 68.184 256.815 68.184ZM270.532 72V52.56H284.572V57.132H275.428V72H270.532ZM296.401 72.54C294.445 72.54 292.729 72.102 291.253 71.226C289.777 70.35 288.625 69.144 287.797 67.608C286.981 66.06 286.573 64.284 286.573 62.28C286.573 60.252 286.993 58.47 287.833 56.934C288.673 55.386 289.831 54.18 291.307 53.316C292.783 52.452 294.481 52.02 296.401 52.02C298.357 52.02 300.073 52.458 301.549 53.334C303.037 54.21 304.195 55.422 305.023 56.97C305.851 58.506 306.265 60.276 306.265 62.28C306.265 64.296 305.845 66.078 305.005 67.626C304.177 69.162 303.019 70.368 301.531 71.244C300.055 72.108 298.345 72.54 296.401 72.54ZM296.401 67.968C297.973 67.968 299.143 67.44 299.911 66.384C300.691 65.316 301.081 63.948 301.081 62.28C301.081 60.552 300.685 59.172 299.893 58.14C299.113 57.108 297.949 56.592 296.401 56.592C295.333 56.592 294.457 56.832 293.773 57.312C293.089 57.792 292.579 58.458 292.243 59.31C291.919 60.162 291.757 61.152 291.757 62.28C291.757 64.02 292.147 65.406 292.927 66.438C293.719 67.458 294.877 67.968 296.401 67.968Z" fill="black"/>
</svg>
