<svg width="268" height="36" viewBox="0 0 268 36" fill="none" xmlns="http://www.w3.org/2000/svg">
<path d="M0.52 27V1.08H5.416V11.736H17.008V1.08H21.904V27H17.008V16.308H5.416V27H0.52ZM29.4415 35.64L33.1855 25.344L33.2575 28.368L24.7975 7.56H29.8735L35.5615 22.284H34.4095L40.0615 7.56H44.9575L33.9775 35.64H29.4415ZM57.0288 27.54C55.0968 27.54 53.4828 27.09 52.1868 26.19C50.8908 25.29 49.9128 24.066 49.2528 22.518C48.6048 20.97 48.2808 19.224 48.2808 17.28C48.2808 15.336 48.6048 13.59 49.2528 12.042C49.9008 10.494 50.8548 9.27 52.1148 8.37C53.3748 7.47 54.9288 7.02 56.7768 7.02C58.6368 7.02 60.2568 7.464 61.6368 8.352C63.0168 9.24 64.0848 10.458 64.8408 12.006C65.6088 13.542 65.9928 15.3 65.9928 17.28C65.9928 19.224 65.6148 20.97 64.8588 22.518C64.1148 24.066 63.0708 25.29 61.7268 26.19C60.3828 27.09 58.8168 27.54 57.0288 27.54ZM47.4528 35.64V7.56H51.7728V20.88H52.3848V35.64H47.4528ZM56.2368 23.184C57.2928 23.184 58.1568 22.92 58.8288 22.392C59.5008 21.864 59.9988 21.156 60.3228 20.268C60.6468 19.368 60.8088 18.372 60.8088 17.28C60.8088 16.2 60.6408 15.216 60.3048 14.328C59.9688 13.428 59.4468 12.714 58.7388 12.186C58.0428 11.646 57.1488 11.376 56.0568 11.376C55.0368 11.376 54.2088 11.622 53.5728 12.114C52.9488 12.606 52.4928 13.296 52.2048 14.184C51.9168 15.072 51.7728 16.104 51.7728 17.28C51.7728 18.456 51.9168 19.488 52.2048 20.376C52.4928 21.264 52.9608 21.954 53.6088 22.446C54.2688 22.938 55.1448 23.184 56.2368 23.184ZM69.5936 17.532V13.752H80.3936V17.532H69.5936ZM82.5677 27L90.4877 1.08H97.7957L105.716 27H100.676L93.6197 4.14H94.5557L87.6077 27H82.5677ZM87.3197 21.6V17.028H101V21.6H87.3197ZM107.142 27V22.932C107.85 23.064 108.396 23.058 108.78 22.914C109.164 22.758 109.452 22.458 109.644 22.014C109.848 21.558 110.022 20.94 110.166 20.16C110.358 19.128 110.526 17.922 110.67 16.542C110.826 15.162 110.958 13.704 111.066 12.168C111.174 10.62 111.27 9.084 111.354 7.56H126.042V27H121.146V12.132H115.638C115.59 12.756 115.524 13.5 115.44 14.364C115.368 15.228 115.284 16.128 115.188 17.064C115.104 17.988 115.008 18.876 114.9 19.728C114.792 20.568 114.678 21.288 114.558 21.888C114.27 23.412 113.844 24.612 113.28 25.488C112.716 26.364 111.942 26.922 110.958 27.162C109.974 27.414 108.702 27.36 107.142 27ZM148.557 27.54C146.613 27.54 144.873 27.246 143.337 26.658C141.813 26.058 140.517 25.152 139.449 23.94C138.393 22.728 137.589 21.204 137.037 19.368L141.825 18.18C142.281 19.56 143.067 20.7 144.183 21.6C145.299 22.5 146.649 22.944 148.233 22.932C149.349 22.908 150.411 22.686 151.419 22.266C152.439 21.846 153.261 21.204 153.885 20.34C154.341 19.764 154.689 19.134 154.929 18.45C155.181 17.754 155.361 17.04 155.469 16.308H146.397V11.736H155.505C155.289 10.416 154.869 9.258 154.245 8.262C153.621 7.266 152.805 6.492 151.797 5.94C150.789 5.388 149.601 5.124 148.233 5.148C146.613 5.16 145.233 5.616 144.093 6.516C142.965 7.416 142.185 8.616 141.753 10.116L136.857 9.432C137.505 6.6 138.843 4.41 140.871 2.862C142.899 1.314 145.461 0.539999 148.557 0.539999C151.065 0.539999 153.231 1.11 155.055 2.25C156.891 3.378 158.307 4.956 159.303 6.984C160.299 9.012 160.797 11.364 160.797 14.04C160.797 16.56 160.305 18.84 159.321 20.88C158.349 22.92 156.945 24.54 155.109 25.74C153.285 26.94 151.101 27.54 148.557 27.54ZM164.347 27V7.56H169.243V14.976H177.235V7.56H182.131V27H177.235V19.548H169.243V27H164.347ZM196.201 27.54C194.209 27.54 192.451 27.114 190.927 26.262C189.415 25.398 188.227 24.216 187.363 22.716C186.511 21.204 186.085 19.476 186.085 17.532C186.085 15.408 186.505 13.56 187.345 11.988C188.185 10.416 189.343 9.198 190.819 8.334C192.295 7.458 193.993 7.02 195.913 7.02C197.953 7.02 199.687 7.5 201.115 8.46C202.543 9.42 203.599 10.77 204.283 12.51C204.967 14.25 205.207 16.296 205.003 18.648H200.161V16.848C200.161 14.868 199.843 13.446 199.207 12.582C198.583 11.706 197.557 11.268 196.129 11.268C194.461 11.268 193.231 11.778 192.439 12.798C191.659 13.806 191.269 15.3 191.269 17.28C191.269 19.092 191.659 20.496 192.439 21.492C193.231 22.476 194.389 22.968 195.913 22.968C196.873 22.968 197.695 22.758 198.379 22.338C199.063 21.918 199.585 21.312 199.945 20.52L204.841 21.924C204.109 23.7 202.951 25.08 201.367 26.064C199.795 27.048 198.073 27.54 196.201 27.54ZM189.757 18.648V15.012H202.645V18.648H189.757ZM218.607 27.54C216.675 27.54 215.061 27.09 213.765 26.19C212.469 25.29 211.491 24.066 210.831 22.518C210.183 20.97 209.859 19.224 209.859 17.28C209.859 15.336 210.183 13.59 210.831 12.042C211.479 10.494 212.433 9.27 213.693 8.37C214.953 7.47 216.507 7.02 218.355 7.02C220.215 7.02 221.835 7.464 223.215 8.352C224.595 9.24 225.663 10.458 226.419 12.006C227.187 13.542 227.571 15.3 227.571 17.28C227.571 19.224 227.193 20.97 226.437 22.518C225.693 24.066 224.649 25.29 223.305 26.19C221.961 27.09 220.395 27.54 218.607 27.54ZM209.031 35.64V7.56H213.351V20.88H213.963V35.64H209.031ZM217.815 23.184C218.871 23.184 219.735 22.92 220.407 22.392C221.079 21.864 221.577 21.156 221.901 20.268C222.225 19.368 222.387 18.372 222.387 17.28C222.387 16.2 222.219 15.216 221.883 14.328C221.547 13.428 221.025 12.714 220.317 12.186C219.621 11.646 218.727 11.376 217.635 11.376C216.615 11.376 215.787 11.622 215.151 12.114C214.527 12.606 214.071 13.296 213.783 14.184C213.495 15.072 213.351 16.104 213.351 17.28C213.351 18.456 213.495 19.488 213.783 20.376C214.071 21.264 214.539 21.954 215.187 22.446C215.847 22.938 216.723 23.184 217.815 23.184ZM231.532 27V7.56H245.572V12.132H236.428V27H231.532ZM257.401 27.54C255.445 27.54 253.729 27.102 252.253 26.226C250.777 25.35 249.625 24.144 248.797 22.608C247.981 21.06 247.573 19.284 247.573 17.28C247.573 15.252 247.993 13.47 248.833 11.934C249.673 10.386 250.831 9.18 252.307 8.316C253.783 7.452 255.481 7.02 257.401 7.02C259.357 7.02 261.073 7.458 262.549 8.334C264.037 9.21 265.195 10.422 266.023 11.97C266.851 13.506 267.265 15.276 267.265 17.28C267.265 19.296 266.845 21.078 266.005 22.626C265.177 24.162 264.019 25.368 262.531 26.244C261.055 27.108 259.345 27.54 257.401 27.54ZM257.401 22.968C258.973 22.968 260.143 22.44 260.911 21.384C261.691 20.316 262.081 18.948 262.081 17.28C262.081 15.552 261.685 14.172 260.893 13.14C260.113 12.108 258.949 11.592 257.401 11.592C256.333 11.592 255.457 11.832 254.773 12.312C254.089 12.792 253.579 13.458 253.243 14.31C252.919 15.162 252.757 16.152 252.757 17.28C252.757 19.02 253.147 20.406 253.927 21.438C254.719 22.458 255.877 22.968 257.401 22.968Z" fill="white"/>
</svg>
